# xmcd
#
# Track frame offsets:
# 150
# 13882
# 28057
# 42162
# 55990
# 67977
# 81147
# 95077
# 108900
# 123437
# 137692
# 152085
# 165902
# 180225
# 193562
# 206940
#
# Disc length: 2956 seconds
#
#
# Revision: 2
# Processed by: cddbd v1.4PL0 Copyright (c) Steve Scherf et al.
# Submitted via: FreeRIP 2.40 
#
DISCID=d30b8a10
DTITLE=Leadbelly - Congress Blues
DYEAR=1900
DGENRE=
TTITLE0=Pick a Bale of Cotton
TTITLE1=Whoa Back Buck
TTITLE2=The Midnight Special
TTITLE3=Alabama Bound
TTITLE4=Rock Island Line
TTITLE5=Good Morning Blues
TTITLE6=Leaving Blues
TTITLE7=Roberta
TTITLE8=Alberta
TTITLE9=I'm On My Last Go Round
TTITLE10=Easy Rider
TTITLE11=New York City
TTITLE12=Worried Blues
TTITLE13=Stew-ball
TTITLE14=Ham an' Eggs
TTITLE15=Sail On Little Girl
EXTD=Aldabra Records
EXTT0=
EXTT1=
EXTT2=
EXTT3=
EXTT4=
EXTT5=
EXTT6=
EXTT7=
EXTT8=
EXTT9=
EXTT10=
EXTT11=
EXTT12=
EXTT13=
EXTT14=
EXTT15=
PLAYORDER=
